<svg width="26" height="19" xmlns="http://www.w3.org/2000/svg"><g fill="none" fill-rule="evenodd"><path d="M6.592 3.093C6.356 1.865 5.34.988 4.17 1H1.276C1.123 1 1 1.132 1 1.294c0 .164.123.296.276.296H4.17c.901.004 1.68.679 1.872 1.62l1.71 8.254c.297 1.486 1.527 2.54 2.947 2.536h9.834c1.443.002 2.686-1.082 2.975-2.594l1.487-8.313a.297.297 0 00-.214-.35c-.014-.002-4.47-.004-13.367-.005-.151 0-.275.132-.275.295 0 .162.124.294.275.294h13.004l-1.434 7.96c-.224 1.246-1.237 2.147-2.423 2.153h-9.834c-1.172.011-2.188-.866-2.425-2.094l-1.71-8.253z" stroke="#373837" stroke-width=".25" fill="#000"/><path d="M9.5 19a1.5 1.5 0 110-3 1.5 1.5 0 010 3zM23 17.5a1.5 1.5 0 01-1.5 1.5 1.5 1.5 0 111.5-1.5" fill="#373837"/></g></svg>